<svg xmlns="http://www.w3.org/2000/svg" viewBox="0 0 702 564"><path fill="#e1dbd7" stroke="#e1dbd7" d="M0 282.001v282.002l351.25-.252 351.25-.251.252-281.75L703.004 0H0v282.001m.493.499c0 155.1.116 218.401.257 140.669.141-77.732.141-204.632 0-282S.493 127.4.493 282.5m467.234 35.453c-12.358 3.95-17.714 12.094-21.148 32.162l-.619 3.614-6.6.53c-16.019 1.286-18.792 15.527-3.259 16.741 7.335.573 6.938-.653 4.373 13.5-5.679 31.337-9.474 53.716-9.474 55.872 0 7.755 7.731 12.889 14.316 9.506 7.503-3.855 9.13-7.713 13.232-31.378l4.078-23.5c.812-4.675 2.016-11.875 2.676-16l1.198-7.5 8.374-.544c9.655-.627 13.126-3.101 13.126-9.357 0-4.979-2.691-6.772-11.059-7.371l-7.111-.509.634-3.609c2.558-14.566 4.727-16.61 17.619-16.61 9.19 0 10.025-.169 12.326-2.5 5.381-5.45 3.54-11.5-4.207-13.821-6.062-1.817-21.7-1.392-28.475.774m49.257.91c-4.38 2.342-7.213 7.083-7.35 12.301-.327 12.503 19.851 11.548 23.367-1.107 2.884-10.383-5.966-16.568-16.017-11.194M218.5 352.649c-12.677 2.64-20.624 6.408-27.034 12.817C181.304 375.628 181.882 387 192.56 387c3.915 0 4.843-.474 8.178-4.174 10.887-12.08 14.877-14.208 26.762-14.27 12.783-.067 17.254 4.089 16.306 15.156-.373 4.365-.664 4.47-28.806 10.32-10.725 2.229-21.804 5.108-24.62 6.396-22.546 10.315-25.583 39.528-4.989 47.989 12.274 5.043 29.881 1.643 46.798-9.036l3.762-2.375 1.68 3.247c6.047 11.694 13.377 13.585 21.434 5.529l3.062-3.063-.678-11.11c-.614-10.056-.369-12.721 2.586-28.109 6.834-35.592 3.807-45.495-15.283-49.996-5.763-1.359-25.196-1.908-30.252-.855m71.162 1.128c-1.56.947-3.725 3.445-4.809 5.549l-1.971 3.826 3.155 19.674c6.055 37.761 9.744 58.694 10.825 61.424 2.238 5.654 9.859 8.147 16.467 5.386 5.937-2.481 9.59-8.457 22.603-36.982 1.043-2.284 4-8.654 6.572-14.154s5.157-11.125 5.745-12.5c1.467-3.432 2.091.495 6.754 42.5 2.17 19.544 6.327 24.815 17.043 21.605 7.813-2.342 8.923-3.998 30.221-45.105 23.368-45.104 23.705-46.047 18.15-50.825-3.324-2.859-10.116-2.632-13.614.457-1.844 1.628-7.736 13.156-18.587 36.368-10.643 22.767-14.595 30.334-14.884 28.5-.173-1.1-1.678-14.375-3.344-29.5-3.206-29.096-3.92-32.723-6.985-35.497-3.102-2.808-9.949-3.081-14.827-.593-5.867 2.994-5.467 2.28-25.256 45.027l-10.386 22.437-.75-4.392c-.709-4.154-2.447-18.729-4.766-39.982-1.789-16.391-3.045-21.906-5.359-23.526-2.808-1.967-8.496-1.823-11.997.303m221.322.086c-6.253 3.344-6.711 4.724-12.485 37.637-1.447 8.25-3.265 18.6-4.039 23-4.138 23.528-4.421 25.932-3.468 29.472 2.52 9.356 16.494 8.658 21.26-1.063C514.239 438.856 527 368.57 527 361.676c0-8.212-7.985-12.107-16.016-7.813M562 352.706c-5.313 1.943-8.253 7.119-10.391 18.294C546.893 395.65 540 436.969 540 440.586c0 7.956 6.69 12.242 14.207 9.101 5.668-2.368 8.446-6.99 10.338-17.203 6.615-35.697 8.59-43.151 13.469-50.845 5.364-8.458 14.071-10.874 25.344-7.033 7.534 2.568 14.286-1.513 15.319-9.258.693-5.191-2.114-8.62-9.237-11.285-11.046-4.133-19.817-1.959-28.457 7.052L576 366.312v-3.007c0-8.735-6.219-13.443-14-10.599m-324.5 49.865c-.55.228-7.927 1.988-16.393 3.912C201.882 410.852 196 414.839 196 423.5c0 10.042 11.279 14.361 24.544 9.397 9.944-3.72 15.26-9.915 18.001-20.979.875-3.53 1.815-7.206 2.09-8.168.478-1.672-.789-2.149-3.135-1.179" fill-rule="evenodd"/><path fill="#21899d" stroke="#21899d" d="M0 282.001v282.002l351.25-.252 351.25-.251.252-281.75L703.004 0H0v282.001m.493.499c0 155.1.116 218.401.257 140.669.141-77.732.141-204.632 0-282S.493 127.4.493 282.5m475.974 33.568c-17.73 1.739-25.881 10.192-29.486 30.577l-1.264 7.145-6.976.394c-17.38.983-17.372 17.781.009 17.81 4.137.008 4.695-5.203-5.68 53.006-2.909 16.322-2.777 19.447.978 23.202 5.358 5.358 16.281 2.042 19.623-5.958.795-1.902 3.674-16.122 6.398-31.601 2.724-15.479 5.417-30.443 5.984-33.253l1.031-5.111 7.035-.653c8.933-.831 12.386-2.596 13.87-7.093 2.305-6.984-1.907-10.533-12.502-10.533h-5.578l.68-3.75c2.615-14.434 6.399-17.788 18.802-16.664 8.296.752 10.8-.121 13.099-4.566 3.305-6.392-.087-11.48-8.335-12.504-8.781-1.089-10.669-1.137-17.688-.448m39.837 2.888c-10.8 6.586-8.858 21.111 2.847 21.287 8.482.129 14.849-6.171 14.849-14.692 0-7.647-9.912-11.341-17.696-6.595M212 353.834c-16.136 4.544-28 15.403-28 25.626 0 5.087 2.821 7.54 8.668 7.54 4.516 0 4.916-.256 12.25-7.839 8.939-9.242 12.318-10.589 25.105-10.008 9.387.426 12.228 2.453 13.433 9.584 1.486 8.801 1.66 8.716-32.215 15.785-8.943 1.866-18.247 4.272-20.676 5.346-10.174 4.5-18.339 15.547-19.296 26.106-2.204 24.297 28.331 32.842 57.157 15.997 3.777-2.207 7.087-3.792 7.356-3.522.27.269 1.891 2.626 3.604 5.237 5.623 8.571 12.085 9.508 19.214 2.784l3.659-3.45-.66-10.76c-.562-9.175-.279-12.822 1.922-24.76 4.13-22.396 4.467-24.701 4.468-30.5 0-11.396-3.951-17.982-13.232-22.054-7.403-3.249-32.823-3.91-42.757-1.112m77.299.126c-3.44 2.097-6.299 6.649-6.299 10.028 0 1.892 4.874 32.692 10.05 63.512 3.257 19.392 5.726 23.5 14.126 23.5 10.499 0 12.878-3.17 29.467-39.272 6.876-14.964 12.605-27.309 12.731-27.435.125-.125 1.713 12.695 3.529 28.489 4.207 36.599 5.447 39.284 17.489 37.858 9.123-1.08 10.397-3.019 39.965-60.802C417.861 375.174 424 362.046 424 360.665c0-4.553-4.534-8.665-9.554-8.665-7.748 0-9.239 2.162-25.446 36.874-7.975 17.081-14.837 31.073-15.25 31.092-.413.018-.75-1.297-.75-2.924 0-5.627-5.917-55.693-6.882-58.231-1.855-4.88-5.938-7.055-12.379-6.594-9.986.715-9.161-.58-34.555 54.283-3.055 6.6-5.848 12.354-6.207 12.788-.359.433-1.437-5.867-2.395-14-5.872-49.807-5.631-48.327-8.389-51.538-2.05-2.387-8.817-2.277-12.894.21m220.599.303c-1.869 1.245-4.144 3.832-5.057 5.75-1.746 3.671-14.841 75.528-14.841 81.438 0 11.329 15.959 12.593 22.301 1.766 2.98-5.089 16.015-80.73 14.633-84.916-2.147-6.508-10.394-8.462-17.036-4.038m49.995-.766c-6.157 3.347-6.47 4.432-14.401 50.003l-4.591 26.365c-2.727 15.652-.498 21.135 8.589 21.135 9.415 0 13.309-6.284 17.037-27.5 8.089-46.03 14.13-54.32 35.574-48.825 7.892 2.022 11.96.913 15.014-4.095 5.983-9.812-2.516-18.558-18.049-18.574-7.036-.008-12.57 2.688-18.468 8.993L576 365.914v-4.502c0-8.173-8.21-12.207-16.107-7.915M236.5 403.173c-1.65.464-8.995 2.174-16.322 3.798-17.468 3.874-21.971 6.68-23.649 14.732-2.066 9.918 8.147 15.662 21.039 11.832 11.6-3.446 17.818-10.074 20.962-22.344 2.071-8.085 1.814-9.099-2.03-8.018" fill-rule="evenodd"/><path fill="#2a808f" stroke="#2a808f" d="M0 282.001v282.002l351.25-.252 351.25-.251.252-281.75L703.004 0H0v282.001m.493.499c0 155.1.116 218.401.257 140.669.141-77.732.141-204.632 0-282S.493 127.4.493 282.5M332 110.505c-20.526 4.56-44.802 18.9-64.75 38.249-5.682 5.511-7.512 8.254-5.5 8.241.413-.002 3.675-2.968 7.25-6.59 36.509-36.991 86.24-50.295 107.719-28.816 6.621 6.621 6.604 6.782-.969 8.875-65.543 18.119-131.073 94.211-106.651 123.84 9.728 11.802 34.444 10.255 57.285-3.586 41.732-25.29 70.403-74.279 64.19-109.679-.817-4.653-1.243-8.703-.948-9 2.854-2.86 36.12.074 61.874 5.459 27.016 5.648 35.949 7.617 36.343 8.012.208.208-1.809 1.438-4.482 2.734-32.015 15.514-61.713 42.58-102.331 93.26-47.626 59.424-74.592 82.018-108.03 90.518-37.441 9.517-70.349-4.715-65.905-28.503 1.539-8.236 4.905-10.332 4.905-3.054 0 13.288 19.115 5.426 19.407-7.982.238-10.935-13.953-11.715-22.364-1.229-8.648 10.781-7.388 25.808 2.945 35.125 32.8 29.57 123.508 1.319 163.805-51.019 4.622-6.003 21.191-29.067 27.207-37.871 32.29-47.259 57.426-73.853 83.054-87.872l6.554-3.585 8.446 1.465c38.816 6.735 68.102 7.054 91.399.993 21.887-5.694 31.477-15.058 23.906-23.343-10.528-11.519-61.944-7.794-99.359 7.198-6.331 2.537-3.161 2.902-38-4.375l-25.5-5.327-21 .011c-19.712.011-23.657.346-39.08 3.325l-6.081 1.175-6.419-6.415c-8.94-8.932-14.465-11-30.42-11.387-7.819-.189-14.265.212-18.5 1.153m236.5 11.525c-14.937 1.688-44.931 9.344-50.382 12.86-1.846 1.191-1.192 1.363 19.155 5.045 23.653 4.281 42.152 5.702 54.486 4.186 24.841-3.053 32.808-14.94 13.853-20.671-6.262-1.893-26.18-2.656-37.112-1.42m-198 13.385C320.347 149.623 267 202.033 267 237.098c0 31.889 37.91 29.281 73.363-5.048 29.452-28.518 45.574-58.432 45.622-84.651.028-15.214-1.073-16.066-15.485-11.984m103.902 180.518c-16.228 2.584-23.453 10.23-27.3 28.892l-1.789 8.675-6.406.519c-9.736.788-12.907 3.309-12.907 10.26 0 4.915 2.787 7.006 10.037 7.53 3.28.237 5.955.715 5.945 1.061-.018.616-.626 4.098-4.996 28.63-1.175 6.6-2.527 14.25-3.004 17a575.525 575.525 0 0 1-1.925 10.386c-1.402 7.144-1.29 16.228.225 18.201 4.975 6.479 16.15 4.473 20.96-3.762 1.366-2.339 13.758-66.007 13.758-70.688 0-.191 3.334-.6 7.409-.909 8.612-.651 11.006-1.696 13.081-5.708 3.845-7.436.714-11.274-9.676-11.861l-7.04-.397.667-5.131c1.563-12.03 6.905-16.48 17.788-14.818 10.861 1.659 17.933-5.037 13.691-12.963-2.328-4.349-16.617-6.813-28.518-4.917m45.073 1.127c-9.991 2.907-14.023 17.196-6.198 21.967 11.173 6.813 26.567-8.238 19.194-18.766-1.248-1.781-7.448-4.508-9.471-4.165-.275.046-1.861.48-3.525.964m-435.283 2.616c-4.367 2.152-7.594 8.366-6.732 12.962 1.131 6.029 3.646 6.815 23.058 7.207l17.109.346-1.265 7.654c-.695 4.21-4.436 25.521-8.313 47.356-7.312 41.185-8.045 47.931-5.589 51.439 5.071 7.239 18.461 4.319 22.543-4.917 1.027-2.323 3.006-10.748 4.398-18.723s3.928-22.375 5.636-32c1.708-9.625 3.729-21.1 4.491-25.5.762-4.4 2.08-11.825 2.928-16.5.848-4.675 1.542-8.613 1.543-8.75 0-.137 7.089-.27 15.751-.294 20.626-.057 25.72-1.79 28.307-9.63 1.554-4.708.486-8.024-3.334-10.353-4.548-2.774-94.964-3.041-100.531-.297m135.344 32.369c-18.27 2.87-31.584 11.819-35.134 23.614-1.631 5.42-.486 8.95 3.598 11.096 4.916 2.584 8.815.909 16.446-7.063 9.737-10.174 22.397-13.709 33.092-9.24 5.163 2.156 8.186 15.289 3.899 16.934-2.375.911-13.201 3.377-31.146 7.095-23.814 4.934-32.362 10.304-37.366 23.474-10.623 27.958 19.103 42.529 52.342 25.657l10.767-5.465 1.939 3.801c4.256 8.341 11.152 11.102 17.723 7.096 5.852-3.568 6.669-5.895 5.916-16.836-.588-8.532-.28-11.722 2.528-26.211 7.083-36.535 3.967-48.349-13.88-52.639-7.569-1.82-23.237-2.49-30.724-1.313m72.816.058c-1.732.496-4.545 2.491-6.25 4.434-4.265 4.857-4.255 5.078 1.849 40.963.561 3.3 2.413 14.55 4.115 25 4.111 25.244 5.898 28.502 15.634 28.498 10.08-.004 12.701-3.517 28.737-38.504C349.291 384.448 350 383.138 350 387.449c0 3.461 3.59 34.49 5.479 47.358 2.006 13.668 4.939 16.84 14.729 15.932 9.056-.841 10.481-2.795 30.8-42.239 4.534-8.8 11.316-21.867 15.072-29.038 7.266-13.873 8.827-19.359 6.675-23.462-2.64-5.035-12.935-5.788-17.026-1.244-2.186 2.427-4.535 7.221-24.223 49.445-6.766 14.512-8.506 16.671-8.506 10.558 0-3.29-3.253-33.573-5.091-47.385-1.736-13.056-6.488-17.648-16.012-15.473-8.001 1.826-10.314 5.072-22.162 31.099a1872.45 1872.45 0 0 1-12.77 27.5l-4.268 9-.741-5c-.407-2.75-1.498-11.75-2.423-20-4.116-36.684-5.021-40.944-8.935-42.06-4.153-1.185-5.145-1.225-8.246-.337m221.117-.016c-3.58 1.012-6.893 3.898-8.875 7.732C502.94 363.017 490 435.104 490 441.12c0 6.316 4.47 10.281 10.894 9.664 9.628-.925 12.83-5.86 16.08-24.784 1.18-6.875 3.259-18.8 4.619-26.5 5.988-33.89 6.657-38.912 5.559-41.698-1.859-4.718-8.055-7.306-13.683-5.715m49.174-.069c-7.527 2.282-9.555 7.041-14.06 32.982-1.958 11.275-4.005 22.75-4.55 25.5-6.939 35.05-5.946 41.402 6.291 40.238 9.503-.904 12.429-5.262 15.649-23.305 6.191-34.697 9.19-43.857 16.447-50.228 4.789-4.206 9.352-4.909 17.737-2.734 8.412 2.182 12.846 1.502 16.198-2.481 8.157-9.694-.585-20.24-16.776-20.24-7.59 0-11.307 1.739-18.329 8.572l-5.25 5.11v-4.16c0-7.188-6.141-11.443-13.357-9.254m-326.739 51.411c-.235.236-6.662 1.798-14.281 3.472-15.614 3.431-21.629 6.284-23.679 11.234-4.486 10.831 3.167 18.044 16.793 15.826 13.389-2.179 21.383-11.125 24.76-27.711.611-3.001-1.643-4.771-3.593-2.821" fill-rule="evenodd"/><path fill="#04343c" stroke="#04343c" d="M0 282.001v282.002l351.25-.252 351.25-.251.252-281.75L703.004 0H0v282.001m.493.499c0 155.1.116 218.401.257 140.669.141-77.732.141-204.632 0-282S.493 127.4.493 282.5m334.416-172.946c-8.331 1.508-19.638 5.304-27.409 9.202-16.015 8.032-47.345 33.108-47.468 37.994-.064 2.507 2.147 1.099 9.729-6.198 39.095-37.624 86.815-50.093 107.175-28.005 4.593 4.982 4.564 5.976-.197 6.986-10.878 2.309-35.145 13.494-47.961 22.107-54.19 36.419-82.007 92.51-53.737 108.36 12.636 7.084 47.834-1.577 60.959-15 .275-.281 2.3-1.816 4.5-3.41 6.864-4.975 24.759-23.719 30.637-32.09 17.645-25.13 25.416-57.261 18.32-75.752-.619-1.612.411-1.748 13.29-1.748 17.91 0 33.829 2.377 69.253 10.343 3.575.804 8.188 1.751 10.25 2.105 5.173.887 4.767 1.623-3 5.44-21.601 10.614-47.325 31.869-71.544 59.112-15.327 17.241-16.89 19.049-18.706 21.642-3.385 4.835-25.749 32.22-33.256 40.723-39.738 45.014-70.049 62.868-106.744 62.874-19.058.003-31.085-4.742-38.281-15.104-4.667-6.721-4.43-22.135.341-22.135.448 0 .585 1.462.306 3.25-.743 4.745 1.474 7.205 6.494 7.205 12.047 0 19.797-19.585 9.329-23.576-13.786-5.257-28.013 14.31-23.237 31.962 6.108 22.579 47.91 29.507 91.157 15.107 26.896-8.955 54.426-26.082 72.046-44.82 7.688-8.177 14.029-16.698 45.859-61.628 27.318-38.56 46.504-58.263 71.486-73.413 7.897-4.789 5.542-4.697 29.5-1.16 46.874 6.918 89.024 1.963 102.067-11.999 3.804-4.072 4.124-10.481.683-13.653-11.44-10.543-59.867-7.431-96.078 6.174l-9.828 3.693-14.672-3.106A5786.136 5786.136 0 0 1 477 126.953c-29.694-6.451-66.221-6.749-86.429-.704-3.229.965-4.012.927-4.393-.214-1.109-3.328-8.934-10.293-14.571-12.969-10.679-5.069-22.075-6.16-36.698-3.512M562 123.493c-11.63 1.742-20.385 3.903-33.432 8.251l-11.068 3.688 5.572 1.247c46.229 10.347 83.865 9.503 91.435-2.049 6.465-9.868-21.454-15.79-52.507-11.137m-188.75 11.576c-38.622 10.377-82.646 44.913-98.703 77.431-12.631 25.58-8.074 44.463 11.151 46.206 41.766 3.788 108.352-76.612 99.352-119.964-1.371-6.603-1.15-6.534-11.8-3.673m96.403 181.513c-7.52 1.821-13.371 5.792-16.869 11.449-2.979 4.819-6.784 17.076-6.784 21.855 0 2.878-.081 2.919-7.198 3.634-9.054.909-12.802 3.934-12.802 10.33 0 5.594 3.342 8.15 10.654 8.15 5.068 0 5.354.132 4.874 2.25-.28 1.238-.944 4.95-1.476 8.25-.531 3.3-2.331 13.65-4 23-6.693 37.493-6.622 36.839-4.414 40.631 4.446 7.638 15.994 6.491 21.632-2.15 1.88-2.88 2.921-7.859 9.329-44.612l4.731-27.131 8.001-.463c9.333-.541 13.684-3.74 13.654-10.041-.027-5.605-2.218-7.132-11.805-8.226l-6.32-.721.648-4.143c1.901-12.171 7.438-16.592 18.098-14.451 8.72 1.751 14.394-2.217 14.394-10.066 0-7.832-17.385-11.651-34.347-7.545m48.956.583c-12.576 4.768-13.175 21.876-.823 23.533 8.74 1.172 16.192-5.179 16.537-14.094.3-7.742-7.628-12.505-15.714-9.439m-430.758.542c-7.257 1.114-12.657 10.518-9.885 17.212 1.783 4.304 5.329 5.081 23.183 5.081 8.718 0 15.851.195 15.851.434 0 .832-4.266 25.365-13.013 74.834-2.643 14.946-3.969 25.012-3.574 27.121 2.24 11.94 18.865 11.695 25.069-.368 1.612-3.136 2.638-8.42 11.688-60.195l7.284-41.673 18.023-.327c15.715-.284 18.382-.569 20.824-2.224 8.166-5.535 7.523-17.168-1.08-19.558-3.538-.982-88.199-1.285-94.37-.337m128.097 34.724c-18.413 3.85-31.749 14.923-32.221 26.753-.212 5.314 3.494 8.816 9.329 8.816 4.133 0 4.203-.049 11.692-8.282 7.329-8.055 12.929-10.678 22.853-10.703 11.588-.029 15.399 3.172 15.399 12.935 0 2.778-.207 5.05-.46 5.05s-4.865 1.098-10.25 2.439c-5.384 1.342-15.456 3.571-22.38 4.955-27.95 5.583-38.91 15.102-38.91 33.795 0 24.703 33.042 31.015 61.745 11.794 3.094-2.072 3.277-2.087 3.927-.328 3.354 9.073 9.083 12.925 16.087 10.817 8.587-2.584 10.973-7.301 9.275-18.338-1.036-6.73-.925-8.996.936-19.134 1.16-6.325 2.808-15.325 3.661-20 4.404-24.142.354-34.807-15.043-39.604-7.002-2.182-27.206-2.729-35.64-.965m73.82.574c-6.93 3.759-7.88 8.316-5.213 24.995.836 5.225 1.96 12.425 2.498 16a513.55 513.55 0 0 0 1.967 12c.545 3.025 1.896 11.125 3.003 18 3.553 22.063 4.671 24.6 11.744 26.647 11.83 3.426 16.295-1.428 30.954-33.647 11.042-24.272 13.809-29.868 14.446-29.215.384.393 1.404 7.24 2.267 15.215 4.845 44.795 5.058 45.56 13.325 47.931 9.022 2.587 15.857-2.545 23.565-17.691 2.543-4.998 5.464-10.583 6.491-12.413C405.758 401.325 424 363.799 424 360.789c0-10.178-12.902-13.089-19.463-4.392-1.287 1.706-5.489 9.853-9.336 18.103a5133.02 5133.02 0 0 1-12.694 27c-3.134 6.6-6.162 13.125-6.728 14.5l-1.031 2.5-.796-2.783c-.438-1.53-1.291-7.83-1.895-14-3.452-35.265-4.911-43.724-8.088-46.902-6.963-6.963-18.46-3.77-24.178 6.717-1.489 2.732-8.014 16.532-14.5 30.665-6.485 14.133-12.102 25.383-12.483 25-.381-.383-1.376-6.997-2.213-14.697-4.626-42.594-5.385-47.251-8.063-49.473-2.639-2.191-8.747-2.201-12.764-.022m220.732.27c-6.276 3.519-6.924 5.366-11.991 34.225-.772 4.4-1.858 10.475-2.412 13.5-7.969 43.493-7.926 46.962.625 49.805 9.924 3.3 17.008-4.333 19.871-21.409a2400.55 2400.55 0 0 1 5.913-33.896l2.553-14c3.134-17.217 3.392-21.508 1.503-25.015-3.039-5.643-9.44-6.922-16.062-3.21m50-.576c-6.189 3.34-7.672 7.041-11.469 28.602-3.836 21.786-5.812 32.873-6.985 39.199-2.398 12.926-3.196 19.888-2.627 22.921 1.981 10.557 17.549 10.272 23.059-.421 1.394-2.704 2.396-7.236 5.531-25 6.946-39.368 15.026-49.258 34.796-42.592 12.277 4.14 22.741-9.441 13.784-17.889-9.926-9.362-24.671-8.393-35.388 2.324-3.069 3.069-5.221 4.999-4.783 4.289.439-.709.235-3.301-.454-5.76-1.928-6.886-8.648-9.352-15.464-5.673m-323.683 50.817c-.283.284-5.646 1.583-11.916 2.887-17.994 3.742-19.992 4.453-24.115 8.575-5.178 5.179-5.452 11.663-.68 16.121 7.975 7.45 28.787.871 34.852-11.016 1.579-3.096 5.042-14.412 5.042-16.477 0-.738-2.465-.808-3.183-.09" fill-rule="evenodd"/></svg>